<mxfile host="app.diagrams.net" modified="2023-11-10T19:05:33.424Z" agent="Mozilla/5.0 (X11; Linux x86_64) AppleWebKit/537.36 (KHTML, like Gecko) Chrome/119.0.0.0 Safari/537.36" etag="hMStyUVO00YJrk6Tb7Jk" version="22.1.0" type="device">
  <diagram name="Page-1" id="X5MXT8sr2YDITKc7DKtI">
    <mxGraphModel dx="1434" dy="1870" grid="1" gridSize="10" guides="1" tooltips="1" connect="1" arrows="1" fold="1" page="1" pageScale="1" pageWidth="827" pageHeight="1169" math="0" shadow="0">
      <root>
        <mxCell id="0" />
        <mxCell id="1" parent="0" />
        <mxCell id="ReVQj26A0kPooJsw_AWp-1" value="&amp;lt;&amp;lt;device&amp;gt;&amp;gt;&lt;br&gt;Kubernetes node" style="verticalAlign=top;align=left;spacingTop=8;spacingLeft=2;spacingRight=12;shape=cube;size=10;direction=south;fontStyle=4;html=1;whiteSpace=wrap;" parent="1" vertex="1">
          <mxGeometry x="220" y="-670" width="590" height="610" as="geometry" />
        </mxCell>
        <mxCell id="ReVQj26A0kPooJsw_AWp-2" value="&amp;lt;&amp;lt;Docker container&amp;gt;&amp;gt;&lt;br&gt;Frontend" style="verticalAlign=top;align=left;spacingTop=8;spacingLeft=2;spacingRight=12;shape=cube;size=10;direction=south;fontStyle=4;html=1;whiteSpace=wrap;" parent="1" vertex="1">
          <mxGeometry x="552" y="-584" width="180" height="120" as="geometry" />
        </mxCell>
        <mxCell id="ReVQj26A0kPooJsw_AWp-5" value="«ingress»&lt;br&gt;&lt;b&gt;Frontend&lt;/b&gt;" style="html=1;dropTarget=0;whiteSpace=wrap;" parent="1" vertex="1">
          <mxGeometry x="290" y="-549" width="180" height="60" as="geometry" />
        </mxCell>
        <mxCell id="ReVQj26A0kPooJsw_AWp-6" value="" style="shape=module;jettyWidth=8;jettyHeight=4;" parent="ReVQj26A0kPooJsw_AWp-5" vertex="1">
          <mxGeometry x="1" width="20" height="20" relative="1" as="geometry">
            <mxPoint x="-27" y="7" as="offset" />
          </mxGeometry>
        </mxCell>
        <mxCell id="ReVQj26A0kPooJsw_AWp-7" value="«artifact»&lt;br&gt;&lt;b&gt;React app&lt;/b&gt;" style="html=1;dropTarget=0;whiteSpace=wrap;" parent="1" vertex="1">
          <mxGeometry x="562" y="-534" width="150" height="60" as="geometry" />
        </mxCell>
        <mxCell id="ReVQj26A0kPooJsw_AWp-8" value="" style="shape=module;jettyWidth=8;jettyHeight=4;" parent="ReVQj26A0kPooJsw_AWp-7" vertex="1">
          <mxGeometry x="1" width="20" height="20" relative="1" as="geometry">
            <mxPoint x="-27" y="7" as="offset" />
          </mxGeometry>
        </mxCell>
        <mxCell id="ReVQj26A0kPooJsw_AWp-9" value="&amp;lt;&amp;lt;Docker container&amp;gt;&amp;gt;&lt;br&gt;Backend" style="verticalAlign=top;align=left;spacingTop=8;spacingLeft=2;spacingRight=12;shape=cube;size=10;direction=south;fontStyle=4;html=1;whiteSpace=wrap;" parent="1" vertex="1">
          <mxGeometry x="552" y="-410" width="180" height="120" as="geometry" />
        </mxCell>
        <mxCell id="ReVQj26A0kPooJsw_AWp-10" value="«artifact»&lt;br&gt;&lt;b&gt;ASP.NET app&lt;/b&gt;" style="html=1;dropTarget=0;whiteSpace=wrap;" parent="1" vertex="1">
          <mxGeometry x="562" y="-360" width="150" height="60" as="geometry" />
        </mxCell>
        <mxCell id="ReVQj26A0kPooJsw_AWp-11" value="" style="shape=module;jettyWidth=8;jettyHeight=4;" parent="ReVQj26A0kPooJsw_AWp-10" vertex="1">
          <mxGeometry x="1" width="20" height="20" relative="1" as="geometry">
            <mxPoint x="-27" y="7" as="offset" />
          </mxGeometry>
        </mxCell>
        <mxCell id="ReVQj26A0kPooJsw_AWp-13" value="&amp;lt;&amp;lt;Docker container&amp;gt;&amp;gt;&lt;br&gt;Database" style="verticalAlign=top;align=left;spacingTop=8;spacingLeft=2;spacingRight=12;shape=cube;size=10;direction=south;fontStyle=4;html=1;whiteSpace=wrap;" parent="1" vertex="1">
          <mxGeometry x="552" y="-230" width="180" height="120" as="geometry" />
        </mxCell>
        <mxCell id="ReVQj26A0kPooJsw_AWp-14" value="«server»&lt;br&gt;&lt;b&gt;MySQL&lt;/b&gt;" style="html=1;dropTarget=0;whiteSpace=wrap;" parent="1" vertex="1">
          <mxGeometry x="562" y="-180" width="150" height="60" as="geometry" />
        </mxCell>
        <mxCell id="ReVQj26A0kPooJsw_AWp-15" value="" style="shape=module;jettyWidth=8;jettyHeight=4;" parent="ReVQj26A0kPooJsw_AWp-14" vertex="1">
          <mxGeometry x="1" width="20" height="20" relative="1" as="geometry">
            <mxPoint x="-27" y="7" as="offset" />
          </mxGeometry>
        </mxCell>
        <mxCell id="ReVQj26A0kPooJsw_AWp-16" value="«ingress»&lt;br&gt;&lt;b&gt;Backend&lt;/b&gt;" style="html=1;dropTarget=0;whiteSpace=wrap;" parent="1" vertex="1">
          <mxGeometry x="290" y="-375" width="180" height="60" as="geometry" />
        </mxCell>
        <mxCell id="ReVQj26A0kPooJsw_AWp-17" value="" style="shape=module;jettyWidth=8;jettyHeight=4;" parent="ReVQj26A0kPooJsw_AWp-16" vertex="1">
          <mxGeometry x="1" width="20" height="20" relative="1" as="geometry">
            <mxPoint x="-27" y="7" as="offset" />
          </mxGeometry>
        </mxCell>
        <mxCell id="ReVQj26A0kPooJsw_AWp-18" value="&amp;lt;&amp;lt;browser&amp;gt;&amp;gt;&lt;br&gt;&lt;b&gt;User&lt;/b&gt;" style="shape=umlActor;verticalLabelPosition=bottom;verticalAlign=top;html=1;" parent="1" vertex="1">
          <mxGeometry x="90" y="-470" width="30" height="60" as="geometry" />
        </mxCell>
        <mxCell id="ReVQj26A0kPooJsw_AWp-19" value="HTTPS" style="endArrow=classic;startArrow=classic;html=1;rounded=0;exitX=1;exitY=0.5;exitDx=0;exitDy=0;entryX=0;entryY=0;entryDx=65;entryDy=180;entryPerimeter=0;" parent="1" source="ReVQj26A0kPooJsw_AWp-5" target="ReVQj26A0kPooJsw_AWp-2" edge="1">
          <mxGeometry width="50" height="50" relative="1" as="geometry">
            <mxPoint x="502" y="-470" as="sourcePoint" />
            <mxPoint x="552" y="-520" as="targetPoint" />
          </mxGeometry>
        </mxCell>
        <mxCell id="ReVQj26A0kPooJsw_AWp-21" value="HTTPS" style="endArrow=classic;startArrow=classic;html=1;rounded=0;entryX=1;entryY=0.5;entryDx=0;entryDy=0;exitX=0;exitY=0;exitDx=65;exitDy=180;exitPerimeter=0;" parent="1" source="ReVQj26A0kPooJsw_AWp-9" target="ReVQj26A0kPooJsw_AWp-16" edge="1">
          <mxGeometry width="50" height="50" relative="1" as="geometry">
            <mxPoint x="390" y="-280" as="sourcePoint" />
            <mxPoint x="440" y="-330" as="targetPoint" />
          </mxGeometry>
        </mxCell>
        <mxCell id="ReVQj26A0kPooJsw_AWp-22" value="MySQL/TCP" style="endArrow=classic;startArrow=classic;html=1;rounded=0;exitX=0;exitY=0.522;exitDx=0;exitDy=0;exitPerimeter=0;entryX=0;entryY=0;entryDx=120;entryDy=95;entryPerimeter=0;" parent="1" source="ReVQj26A0kPooJsw_AWp-13" target="ReVQj26A0kPooJsw_AWp-9" edge="1">
          <mxGeometry width="50" height="50" relative="1" as="geometry">
            <mxPoint x="590" y="-240" as="sourcePoint" />
            <mxPoint x="640" y="-290" as="targetPoint" />
          </mxGeometry>
        </mxCell>
        <mxCell id="ReVQj26A0kPooJsw_AWp-23" value="HTTPS" style="endArrow=classic;startArrow=classic;html=1;rounded=0;entryX=0;entryY=0.5;entryDx=0;entryDy=0;" parent="1" target="ReVQj26A0kPooJsw_AWp-5" edge="1">
          <mxGeometry width="50" height="50" relative="1" as="geometry">
            <mxPoint x="140" y="-440" as="sourcePoint" />
            <mxPoint x="200" y="-489" as="targetPoint" />
          </mxGeometry>
        </mxCell>
        <mxCell id="ReVQj26A0kPooJsw_AWp-24" value="HTTPS" style="endArrow=classic;startArrow=classic;html=1;rounded=0;entryX=0;entryY=0.5;entryDx=0;entryDy=0;" parent="1" target="ReVQj26A0kPooJsw_AWp-16" edge="1">
          <mxGeometry width="50" height="50" relative="1" as="geometry">
            <mxPoint x="140" y="-420" as="sourcePoint" />
            <mxPoint x="440" y="-370" as="targetPoint" />
          </mxGeometry>
        </mxCell>
        <mxCell id="ReVQj26A0kPooJsw_AWp-25" value="" style="endArrow=classic;html=1;rounded=0;exitX=0;exitY=0;exitDx=120;exitDy=95;exitPerimeter=0;dashed=1;entryX=0.025;entryY=0.528;entryDx=0;entryDy=0;entryPerimeter=0;" parent="1" source="ReVQj26A0kPooJsw_AWp-2" target="ReVQj26A0kPooJsw_AWp-9" edge="1">
          <mxGeometry width="50" height="50" relative="1" as="geometry">
            <mxPoint x="390" y="-320" as="sourcePoint" />
            <mxPoint x="640" y="-410" as="targetPoint" />
          </mxGeometry>
        </mxCell>
      </root>
    </mxGraphModel>
  </diagram>
</mxfile>
